<svg xmlns="http://www.w3.org/2000/svg" xmlns:xlink="http://www.w3.org/1999/xlink" width="231" zoomAndPan="magnify" viewBox="0 0 173.25 166.499994" height="222" preserveAspectRatio="xMidYMid meet" version="1.0"><defs><clipPath id="e51678eeaf"><path d="M 0 0.109375 L 172.503906 0.109375 L 172.503906 165.890625 L 0 165.890625 Z M 0 0.109375 " clip-rule="nonzero"/></clipPath><clipPath id="7a315cd059"><path d="M 33 119 L 139 119 L 139 147.070312 L 33 147.070312 Z M 33 119 " clip-rule="nonzero"/></clipPath><clipPath id="0481912ca2"><path d="M 120 38 L 150.320312 38 L 150.320312 140 L 120 140 Z M 120 38 " clip-rule="nonzero"/></clipPath><clipPath id="db9da5f5c0"><path d="M 54 18.625 L 119 18.625 L 119 85 L 54 85 Z M 54 18.625 " clip-rule="nonzero"/></clipPath><clipPath id="08eb422407"><path d="M 21.875 38 L 53 38 L 53 140 L 21.875 140 Z M 21.875 38 " clip-rule="nonzero"/></clipPath></defs><g clip-path="url(#e51678eeaf)"><path fill="#ffffff" d="M 0 0.109375 L 172.503906 0.109375 L 172.503906 165.890625 L 0 165.890625 Z M 0 0.109375 " fill-opacity="1" fill-rule="nonzero"/><path fill="#ffffff" d="M 0 0.109375 L 172.503906 0.109375 L 172.503906 165.890625 L 0 165.890625 Z M 0 0.109375 " fill-opacity="1" fill-rule="nonzero"/></g><g clip-path="url(#7a315cd059)"><path fill="#1c9ed9" d="M 136.542969 143.351562 L 132.519531 143.351562 L 132.519531 136.914062 C 135.433594 135.804688 137.546875 132.386719 137.546875 128.261719 C 137.546875 123.234375 134.429688 119.210938 130.507812 119.210938 C 126.585938 119.210938 123.464844 123.234375 123.464844 128.261719 C 123.464844 132.386719 125.578125 135.90625 128.496094 136.914062 L 128.496094 143.351562 L 44.003906 143.351562 L 44.003906 136.914062 C 46.921875 135.804688 49.035156 132.386719 49.035156 128.261719 C 49.035156 123.234375 45.914062 119.210938 41.992188 119.210938 C 38.070312 119.210938 34.953125 123.234375 34.953125 128.261719 C 34.953125 132.386719 37.0625 135.90625 39.980469 136.914062 L 39.980469 143.351562 L 35.957031 143.351562 C 34.851562 143.351562 33.945312 144.253906 33.945312 145.359375 C 33.945312 146.46875 34.851562 147.371094 35.957031 147.371094 L 136.542969 147.371094 C 137.648438 147.371094 138.554688 146.46875 138.554688 145.359375 C 138.554688 144.253906 137.648438 143.351562 136.542969 143.351562 Z M 130.507812 123.234375 C 131.914062 123.234375 133.523438 125.34375 133.523438 128.261719 C 133.523438 131.179688 131.914062 133.292969 130.507812 133.292969 C 129.097656 133.292969 127.488281 131.179688 127.488281 128.261719 C 127.488281 125.34375 129.097656 123.234375 130.507812 123.234375 Z M 41.992188 123.234375 C 43.402344 123.234375 45.011719 125.34375 45.011719 128.261719 C 45.011719 131.179688 43.402344 133.292969 41.992188 133.292969 C 40.585938 133.292969 38.976562 131.179688 38.976562 128.261719 C 38.976562 125.34375 40.585938 123.234375 41.992188 123.234375 Z M 41.992188 123.234375 " fill-opacity="1" fill-rule="nonzero"/></g><g clip-path="url(#0481912ca2)"><path fill="#1c9ed9" d="M 150.625 48.800781 L 150.625 40.753906 C 150.625 39.648438 149.71875 38.742188 148.613281 38.742188 L 120.449219 38.742188 L 120.449219 42.765625 L 146.601562 42.765625 L 146.601562 46.789062 L 120.449219 46.789062 L 120.449219 50.8125 L 144.589844 50.8125 L 144.589844 135.304688 L 139.859375 135.304688 C 138.957031 136.914062 137.847656 138.320312 136.441406 139.328125 L 148.613281 139.328125 C 149.71875 139.328125 150.625 138.421875 150.625 137.316406 C 150.625 136.207031 149.71875 135.304688 148.613281 135.304688 L 148.613281 50.8125 C 149.71875 50.8125 150.625 49.90625 150.625 48.800781 Z M 150.625 48.800781 " fill-opacity="1" fill-rule="nonzero"/></g><g clip-path="url(#db9da5f5c0)"><path fill="#1c9ed9" d="M 56.074219 30.695312 L 56.074219 84.609375 L 60.097656 81.492188 L 60.097656 30.695312 L 112.402344 30.695312 L 112.402344 81.492188 L 116.425781 84.609375 L 116.425781 30.695312 C 117.53125 30.695312 118.4375 29.789062 118.4375 28.683594 L 118.4375 20.636719 C 118.4375 19.53125 117.53125 18.625 116.425781 18.625 L 56.074219 18.625 C 54.96875 18.625 54.0625 19.53125 54.0625 20.636719 L 54.0625 28.683594 C 54.0625 29.789062 54.96875 30.695312 56.074219 30.695312 Z M 58.085938 22.648438 L 114.414062 22.648438 L 114.414062 26.671875 L 58.085938 26.671875 Z M 58.085938 22.648438 " fill-opacity="1" fill-rule="nonzero"/></g><path fill="#1c9ed9" d="M 70.15625 34.71875 L 66.132812 34.71875 C 65.027344 34.71875 64.121094 35.625 64.121094 36.730469 C 64.121094 37.835938 65.027344 38.742188 66.132812 38.742188 L 70.15625 38.742188 C 71.261719 38.742188 72.167969 37.835938 72.167969 36.730469 C 72.167969 35.625 71.261719 34.71875 70.15625 34.71875 Z M 70.15625 34.71875 " fill-opacity="1" fill-rule="nonzero"/><path fill="#1c9ed9" d="M 82.226562 34.71875 L 78.203125 34.71875 C 77.097656 34.71875 76.191406 35.625 76.191406 36.730469 C 76.191406 37.835938 77.097656 38.742188 78.203125 38.742188 L 82.226562 38.742188 C 83.332031 38.742188 84.238281 37.835938 84.238281 36.730469 C 84.238281 35.625 83.332031 34.71875 82.226562 34.71875 Z M 82.226562 34.71875 " fill-opacity="1" fill-rule="nonzero"/><path fill="#1c9ed9" d="M 94.296875 34.71875 L 90.273438 34.71875 C 89.167969 34.71875 88.261719 35.625 88.261719 36.730469 C 88.261719 37.835938 89.167969 38.742188 90.273438 38.742188 L 94.296875 38.742188 C 95.402344 38.742188 96.308594 37.835938 96.308594 36.730469 C 96.308594 35.625 95.402344 34.71875 94.296875 34.71875 Z M 94.296875 34.71875 " fill-opacity="1" fill-rule="nonzero"/><path fill="#1c9ed9" d="M 106.367188 34.71875 L 102.34375 34.71875 C 101.238281 34.71875 100.332031 35.625 100.332031 36.730469 C 100.332031 37.835938 101.238281 38.742188 102.34375 38.742188 L 106.367188 38.742188 C 107.472656 38.742188 108.378906 37.835938 108.378906 36.730469 C 108.378906 35.625 107.472656 34.71875 106.367188 34.71875 Z M 106.367188 34.71875 " fill-opacity="1" fill-rule="nonzero"/><path fill="#1c9ed9" d="M 70.15625 42.765625 L 66.132812 42.765625 C 65.027344 42.765625 64.121094 43.671875 64.121094 44.777344 C 64.121094 45.882812 65.027344 46.789062 66.132812 46.789062 L 70.15625 46.789062 C 71.261719 46.789062 72.167969 45.882812 72.167969 44.777344 C 72.167969 43.671875 71.261719 42.765625 70.15625 42.765625 Z M 70.15625 42.765625 " fill-opacity="1" fill-rule="nonzero"/><path fill="#1c9ed9" d="M 82.226562 42.765625 L 78.203125 42.765625 C 77.097656 42.765625 76.191406 43.671875 76.191406 44.777344 C 76.191406 45.882812 77.097656 46.789062 78.203125 46.789062 L 82.226562 46.789062 C 83.332031 46.789062 84.238281 45.882812 84.238281 44.777344 C 84.238281 43.671875 83.332031 42.765625 82.226562 42.765625 Z M 82.226562 42.765625 " fill-opacity="1" fill-rule="nonzero"/><path fill="#1c9ed9" d="M 94.296875 42.765625 L 90.273438 42.765625 C 89.167969 42.765625 88.261719 43.671875 88.261719 44.777344 C 88.261719 45.882812 89.167969 46.789062 90.273438 46.789062 L 94.296875 46.789062 C 95.402344 46.789062 96.308594 45.882812 96.308594 44.777344 C 96.308594 43.671875 95.402344 42.765625 94.296875 42.765625 Z M 94.296875 42.765625 " fill-opacity="1" fill-rule="nonzero"/><path fill="#1c9ed9" d="M 106.367188 42.765625 L 102.34375 42.765625 C 101.238281 42.765625 100.332031 43.671875 100.332031 44.777344 C 100.332031 45.882812 101.238281 46.789062 102.34375 46.789062 L 106.367188 46.789062 C 107.472656 46.789062 108.378906 45.882812 108.378906 44.777344 C 108.378906 43.671875 107.472656 42.765625 106.367188 42.765625 Z M 106.367188 42.765625 " fill-opacity="1" fill-rule="nonzero"/><path fill="#1c9ed9" d="M 70.15625 50.8125 L 66.132812 50.8125 C 65.027344 50.8125 64.121094 51.71875 64.121094 52.824219 C 64.121094 53.929688 65.027344 54.835938 66.132812 54.835938 L 70.15625 54.835938 C 71.261719 54.835938 72.167969 53.929688 72.167969 52.824219 C 72.167969 51.71875 71.261719 50.8125 70.15625 50.8125 Z M 70.15625 50.8125 " fill-opacity="1" fill-rule="nonzero"/><path fill="#1c9ed9" d="M 82.226562 50.8125 L 78.203125 50.8125 C 77.097656 50.8125 76.191406 51.71875 76.191406 52.824219 C 76.191406 53.929688 77.097656 54.835938 78.203125 54.835938 L 82.226562 54.835938 C 83.332031 54.835938 84.238281 53.929688 84.238281 52.824219 C 84.238281 51.71875 83.332031 50.8125 82.226562 50.8125 Z M 82.226562 50.8125 " fill-opacity="1" fill-rule="nonzero"/><path fill="#1c9ed9" d="M 94.296875 50.8125 L 90.273438 50.8125 C 89.167969 50.8125 88.261719 51.71875 88.261719 52.824219 C 88.261719 53.929688 89.167969 54.835938 90.273438 54.835938 L 94.296875 54.835938 C 95.402344 54.835938 96.308594 53.929688 96.308594 52.824219 C 96.308594 51.71875 95.402344 50.8125 94.296875 50.8125 Z M 94.296875 50.8125 " fill-opacity="1" fill-rule="nonzero"/><path fill="#1c9ed9" d="M 106.367188 50.8125 L 102.34375 50.8125 C 101.238281 50.8125 100.332031 51.71875 100.332031 52.824219 C 100.332031 53.929688 101.238281 54.835938 102.34375 54.835938 L 106.367188 54.835938 C 107.472656 54.835938 108.378906 53.929688 108.378906 52.824219 C 108.378906 51.71875 107.472656 50.8125 106.367188 50.8125 Z M 106.367188 50.8125 " fill-opacity="1" fill-rule="nonzero"/><path fill="#1c9ed9" d="M 70.15625 58.859375 L 66.132812 58.859375 C 65.027344 58.859375 64.121094 59.765625 64.121094 60.871094 C 64.121094 61.976562 65.027344 62.882812 66.132812 62.882812 L 70.15625 62.882812 C 71.261719 62.882812 72.167969 61.976562 72.167969 60.871094 C 72.167969 59.765625 71.261719 58.859375 70.15625 58.859375 Z M 70.15625 58.859375 " fill-opacity="1" fill-rule="nonzero"/><path fill="#1c9ed9" d="M 82.226562 58.859375 L 78.203125 58.859375 C 77.097656 58.859375 76.191406 59.765625 76.191406 60.871094 C 76.191406 61.976562 77.097656 62.882812 78.203125 62.882812 L 82.226562 62.882812 C 83.332031 62.882812 84.238281 61.976562 84.238281 60.871094 C 84.238281 59.765625 83.332031 58.859375 82.226562 58.859375 Z M 82.226562 58.859375 " fill-opacity="1" fill-rule="nonzero"/><path fill="#1c9ed9" d="M 94.296875 58.859375 L 90.273438 58.859375 C 89.167969 58.859375 88.261719 59.765625 88.261719 60.871094 C 88.261719 61.976562 89.167969 62.882812 90.273438 62.882812 L 94.296875 62.882812 C 95.402344 62.882812 96.308594 61.976562 96.308594 60.871094 C 96.308594 59.765625 95.402344 58.859375 94.296875 58.859375 Z M 94.296875 58.859375 " fill-opacity="1" fill-rule="nonzero"/><path fill="#1c9ed9" d="M 106.367188 58.859375 L 102.34375 58.859375 C 101.238281 58.859375 100.332031 59.765625 100.332031 60.871094 C 100.332031 61.976562 101.238281 62.882812 102.34375 62.882812 L 106.367188 62.882812 C 107.472656 62.882812 108.378906 61.976562 108.378906 60.871094 C 108.378906 59.765625 107.472656 58.859375 106.367188 58.859375 Z M 106.367188 58.859375 " fill-opacity="1" fill-rule="nonzero"/><path fill="#1c9ed9" d="M 48.027344 56.847656 C 48.027344 55.742188 47.121094 54.835938 46.015625 54.835938 L 37.96875 54.835938 C 36.863281 54.835938 35.957031 55.742188 35.957031 56.847656 L 35.957031 64.894531 C 35.957031 66 36.863281 66.90625 37.96875 66.90625 L 46.015625 66.90625 C 47.121094 66.90625 48.027344 66 48.027344 64.894531 Z M 44.003906 62.882812 L 39.980469 62.882812 L 39.980469 58.859375 L 44.003906 58.859375 Z M 44.003906 62.882812 " fill-opacity="1" fill-rule="nonzero"/><path fill="#1c9ed9" d="M 48.027344 72.941406 C 48.027344 71.835938 47.121094 70.929688 46.015625 70.929688 L 37.96875 70.929688 C 36.863281 70.929688 35.957031 71.835938 35.957031 72.941406 L 35.957031 80.988281 C 35.957031 82.09375 36.863281 83 37.96875 83 L 46.015625 83 C 47.121094 83 48.027344 82.09375 48.027344 80.988281 Z M 44.003906 78.976562 L 39.980469 78.976562 L 39.980469 74.953125 L 44.003906 74.953125 Z M 44.003906 78.976562 " fill-opacity="1" fill-rule="nonzero"/><path fill="#1c9ed9" d="M 48.027344 89.035156 C 48.027344 87.929688 47.121094 87.023438 46.015625 87.023438 L 37.96875 87.023438 C 36.863281 87.023438 35.957031 87.929688 35.957031 89.035156 L 35.957031 97.082031 C 35.957031 98.1875 36.863281 99.09375 37.96875 99.09375 L 46.015625 99.09375 C 47.121094 99.09375 48.027344 98.1875 48.027344 97.082031 Z M 44.003906 95.070312 L 39.980469 95.070312 L 39.980469 91.046875 L 44.003906 91.046875 Z M 44.003906 95.070312 " fill-opacity="1" fill-rule="nonzero"/><path fill="#1c9ed9" d="M 46.015625 103.117188 L 37.96875 103.117188 C 36.863281 103.117188 35.957031 104.019531 35.957031 105.128906 L 35.957031 113.175781 C 35.957031 114.28125 36.863281 115.1875 37.96875 115.1875 L 46.015625 115.1875 C 47.121094 115.1875 48.027344 114.28125 48.027344 113.175781 L 48.027344 105.128906 C 48.027344 104.019531 47.121094 103.117188 46.015625 103.117188 Z M 44.003906 111.164062 L 39.980469 111.164062 L 39.980469 107.140625 L 44.003906 107.140625 Z M 44.003906 111.164062 " fill-opacity="1" fill-rule="nonzero"/><path fill="#1c9ed9" d="M 126.484375 66.90625 L 134.53125 66.90625 C 135.636719 66.90625 136.542969 66 136.542969 64.894531 L 136.542969 56.847656 C 136.542969 55.742188 135.636719 54.835938 134.53125 54.835938 L 126.484375 54.835938 C 125.378906 54.835938 124.472656 55.742188 124.472656 56.847656 L 124.472656 64.894531 C 124.472656 66 125.378906 66.90625 126.484375 66.90625 Z M 128.496094 58.859375 L 132.519531 58.859375 L 132.519531 62.882812 L 128.496094 62.882812 Z M 128.496094 58.859375 " fill-opacity="1" fill-rule="nonzero"/><path fill="#1c9ed9" d="M 124.472656 80.988281 C 124.472656 82.09375 125.378906 83 126.484375 83 L 134.53125 83 C 135.636719 83 136.542969 82.09375 136.542969 80.988281 L 136.542969 72.941406 C 136.542969 71.835938 135.636719 70.929688 134.53125 70.929688 L 126.484375 70.929688 C 125.378906 70.929688 124.472656 71.835938 124.472656 72.941406 Z M 128.496094 74.953125 L 132.519531 74.953125 L 132.519531 78.976562 L 128.496094 78.976562 Z M 128.496094 74.953125 " fill-opacity="1" fill-rule="nonzero"/><path fill="#1c9ed9" d="M 124.472656 97.082031 C 124.472656 98.1875 125.378906 99.09375 126.484375 99.09375 L 134.53125 99.09375 C 135.636719 99.09375 136.542969 98.1875 136.542969 97.082031 L 136.542969 89.035156 C 136.542969 87.929688 135.636719 87.023438 134.53125 87.023438 L 126.484375 87.023438 C 125.378906 87.023438 124.472656 87.929688 124.472656 89.035156 Z M 128.496094 91.046875 L 132.519531 91.046875 L 132.519531 95.070312 L 128.496094 95.070312 Z M 128.496094 91.046875 " fill-opacity="1" fill-rule="nonzero"/><path fill="#1c9ed9" d="M 124.472656 113.175781 C 124.472656 114.28125 125.378906 115.1875 126.484375 115.1875 L 134.53125 115.1875 C 135.636719 115.1875 136.542969 114.28125 136.542969 113.175781 L 136.542969 105.128906 C 136.542969 104.019531 135.636719 103.117188 134.53125 103.117188 L 126.484375 103.117188 C 125.378906 103.117188 124.472656 104.019531 124.472656 105.128906 Z M 128.496094 107.140625 L 132.519531 107.140625 L 132.519531 111.164062 L 128.496094 111.164062 Z M 128.496094 107.140625 " fill-opacity="1" fill-rule="nonzero"/><path fill="#1c9ed9" d="M 55.070312 95.070312 L 56.074219 95.070312 L 56.074219 135.304688 L 51.347656 135.304688 C 50.441406 136.914062 49.335938 138.320312 47.925781 139.328125 L 124.574219 139.328125 C 123.164062 138.320312 122.058594 136.914062 121.152344 135.304688 L 116.425781 135.304688 L 116.425781 95.070312 C 116.425781 95.070312 117.429688 95.070312 117.429688 95.070312 C 119.34375 95.070312 120.148438 92.65625 118.636719 91.449219 L 87.457031 67.308594 C 86.753906 66.703125 85.746094 66.703125 85.042969 67.308594 C 85.042969 67.308594 53.863281 91.449219 53.863281 91.449219 C 52.351562 92.65625 53.15625 95.070312 55.070312 95.070312 Z M 60.097656 95.070312 L 66.132812 95.070312 L 66.132812 135.304688 L 60.097656 135.304688 Z M 102.34375 135.304688 L 96.308594 135.304688 L 96.308594 121.222656 C 96.308594 115.6875 91.78125 111.164062 86.25 111.164062 C 80.71875 111.164062 76.191406 115.6875 76.191406 121.222656 L 76.191406 135.304688 L 70.15625 135.304688 L 70.15625 95.070312 L 102.34375 95.070312 Z M 80.214844 135.304688 L 80.214844 121.222656 C 80.214844 117.902344 82.929688 115.1875 86.25 115.1875 C 89.570312 115.1875 92.285156 117.902344 92.285156 121.222656 L 92.285156 135.304688 Z M 112.402344 135.304688 L 106.367188 135.304688 L 106.367188 95.070312 L 112.402344 95.070312 Z M 86.25 71.433594 L 111.496094 91.046875 L 61.003906 91.046875 Z M 86.25 71.433594 " fill-opacity="1" fill-rule="nonzero"/><g clip-path="url(#08eb422407)"><path fill="#1c9ed9" d="M 36.058594 139.328125 C 34.648438 138.320312 33.542969 136.914062 32.636719 135.304688 L 27.910156 135.304688 L 27.910156 50.8125 L 52.050781 50.8125 L 52.050781 46.789062 L 25.898438 46.789062 L 25.898438 42.765625 L 52.050781 42.765625 L 52.050781 38.742188 L 23.886719 38.742188 C 22.78125 38.742188 21.875 39.648438 21.875 40.753906 L 21.875 48.800781 C 21.875 49.90625 22.78125 50.8125 23.886719 50.8125 L 23.886719 135.304688 C 22.78125 135.304688 21.875 136.207031 21.875 137.316406 C 21.875 138.421875 22.78125 139.328125 23.886719 139.328125 Z M 36.058594 139.328125 " fill-opacity="1" fill-rule="nonzero"/></g></svg>