<svg xmlns="http://www.w3.org/2000/svg" xmlns:xlink="http://www.w3.org/1999/xlink" width="231" zoomAndPan="magnify" viewBox="0 0 173.25 166.499994" height="222" preserveAspectRatio="xMidYMid meet" version="1.0"><defs><clipPath id="9a13fa5d0b"><path d="M 0 0.109375 L 172.503906 0.109375 L 172.503906 165.890625 L 0 165.890625 Z M 0 0.109375 " clip-rule="nonzero"/></clipPath><clipPath id="1ad6438070"><path d="M 20 35.046875 L 152.167969 35.046875 L 152.167969 130.632812 L 20 130.632812 Z M 20 35.046875 " clip-rule="nonzero"/></clipPath></defs><g clip-path="url(#9a13fa5d0b)"><path fill="#ffffff" d="M 0 0.109375 L 172.503906 0.109375 L 172.503906 165.890625 L 0 165.890625 Z M 0 0.109375 " fill-opacity="1" fill-rule="nonzero"/><path fill="#ffffff" d="M 0 0.109375 L 172.503906 0.109375 L 172.503906 165.890625 L 0 165.890625 Z M 0 0.109375 " fill-opacity="1" fill-rule="nonzero"/></g><g clip-path="url(#1ad6438070)"><path fill="#1c9ed9" d="M 152.125 91.347656 C 151.996094 90.34375 151.796875 89.355469 151.535156 88.382812 C 151.273438 87.40625 150.945312 86.453125 150.558594 85.519531 C 150.167969 84.589844 149.71875 83.6875 149.210938 82.8125 C 148.699219 81.941406 148.136719 81.105469 147.515625 80.308594 C 146.894531 79.511719 146.226562 78.757812 145.503906 78.050781 C 144.785156 77.34375 144.019531 76.683594 143.214844 76.078125 C 142.40625 75.472656 141.5625 74.921875 140.679688 74.425781 C 139.800781 73.929688 138.890625 73.496094 137.953125 73.125 C 138.324219 72.832031 138.679688 72.523438 139.015625 72.199219 C 139.355469 71.871094 139.675781 71.527344 139.980469 71.167969 C 140.285156 70.808594 140.570312 70.433594 140.835938 70.046875 C 141.097656 69.65625 141.34375 69.253906 141.566406 68.839844 C 141.789062 68.425781 141.992188 68 142.171875 67.566406 C 142.351562 67.128906 142.507812 66.6875 142.640625 66.234375 C 142.773438 65.78125 142.882812 65.324219 142.96875 64.863281 C 143.058594 64.398438 143.121094 63.933594 143.15625 63.464844 C 143.195312 62.996094 143.210938 62.527344 143.199219 62.054688 C 143.1875 61.585938 143.15625 61.117188 143.097656 60.648438 C 143.035156 60.179688 142.953125 59.71875 142.847656 59.257812 C 142.742188 58.800781 142.609375 58.347656 142.457031 57.902344 C 142.304688 57.457031 142.128906 57.023438 141.929688 56.59375 C 141.730469 56.167969 141.511719 55.753906 141.269531 55.347656 C 141.027344 54.945312 140.765625 54.554688 140.484375 54.175781 C 140.203125 53.800781 139.902344 53.4375 139.585938 53.089844 C 139.265625 52.746094 138.929688 52.417969 138.574219 52.105469 C 138.222656 51.792969 137.855469 51.5 137.472656 51.226562 C 137.089844 50.953125 136.691406 50.703125 136.28125 50.46875 C 135.871094 50.238281 135.453125 50.027344 135.019531 49.835938 C 134.589844 49.648438 134.148438 49.480469 133.703125 49.335938 C 133.253906 49.195312 132.796875 49.074219 132.335938 48.976562 C 131.875 48.882812 131.414062 48.808594 130.945312 48.761719 C 130.476562 48.710938 130.007812 48.6875 129.535156 48.6875 C 129.0625 48.6875 128.59375 48.710938 128.125 48.761719 C 127.65625 48.808594 127.195312 48.882812 126.734375 48.976562 C 126.273438 49.074219 125.816406 49.195312 125.367188 49.335938 C 124.921875 49.480469 124.480469 49.648438 124.050781 49.835938 C 123.617188 50.027344 123.199219 50.238281 122.789062 50.46875 C 122.378906 50.703125 121.980469 50.953125 121.597656 51.226562 C 121.214844 51.5 120.847656 51.792969 120.496094 52.105469 C 120.140625 52.417969 119.804688 52.746094 119.484375 53.089844 C 119.167969 53.4375 118.867188 53.800781 118.585938 54.175781 C 118.304688 54.554688 118.042969 54.945312 117.800781 55.347656 C 117.558594 55.753906 117.339844 56.167969 117.140625 56.59375 C 116.941406 57.023438 116.765625 57.457031 116.613281 57.902344 C 116.460938 58.347656 116.328125 58.800781 116.222656 59.257812 C 116.117188 59.71875 116.035156 60.179688 115.972656 60.648438 C 115.914062 61.117188 115.882812 61.585938 115.871094 62.054688 C 115.859375 62.527344 115.875 62.996094 115.914062 63.464844 C 115.949219 63.933594 116.011719 64.398438 116.097656 64.863281 C 116.1875 65.324219 116.296875 65.78125 116.429688 66.234375 C 116.5625 66.6875 116.71875 67.128906 116.898438 67.566406 C 117.078125 68 117.28125 68.425781 117.503906 68.839844 C 117.726562 69.253906 117.972656 69.65625 118.234375 70.046875 C 118.5 70.433594 118.785156 70.808594 119.089844 71.167969 C 119.390625 71.527344 119.714844 71.871094 120.054688 72.199219 C 120.390625 72.523438 120.746094 72.832031 121.117188 73.125 C 119.058594 73.9375 117.160156 75.027344 115.421875 76.394531 C 113.679688 77.765625 112.175781 79.355469 110.902344 81.167969 C 106.832031 77.394531 102.140625 74.691406 96.832031 73.0625 C 97.46875 72.683594 98.078125 72.265625 98.667969 71.816406 C 99.257812 71.367188 99.820312 70.890625 100.359375 70.378906 C 100.898438 69.871094 101.40625 69.332031 101.882812 68.765625 C 102.363281 68.203125 102.8125 67.613281 103.226562 67 C 103.640625 66.386719 104.023438 65.753906 104.367188 65.097656 C 104.714844 64.441406 105.027344 63.769531 105.300781 63.082031 C 105.574219 62.394531 105.808594 61.691406 106.007812 60.980469 C 106.203125 60.265625 106.363281 59.542969 106.484375 58.8125 C 106.601562 58.082031 106.683594 57.34375 106.722656 56.605469 C 106.761719 55.867188 106.761719 55.125 106.71875 54.386719 C 106.679688 53.648438 106.601562 52.910156 106.480469 52.179688 C 106.359375 51.449219 106.199219 50.726562 106 50.011719 C 105.804688 49.300781 105.566406 48.597656 105.292969 47.910156 C 105.019531 47.222656 104.707031 46.550781 104.359375 45.898438 C 104.011719 45.242188 103.632812 44.609375 103.214844 43.996094 C 102.800781 43.382812 102.351562 42.792969 101.871094 42.230469 C 101.390625 41.664062 100.882812 41.128906 100.34375 40.617188 C 99.808594 40.109375 99.242188 39.628906 98.652344 39.183594 C 98.0625 38.734375 97.453125 38.320312 96.816406 37.9375 C 96.179688 37.554688 95.527344 37.207031 94.855469 36.898438 C 94.183594 36.585938 93.496094 36.3125 92.792969 36.078125 C 92.09375 35.839844 91.378906 35.640625 90.65625 35.484375 C 89.933594 35.324219 89.203125 35.203125 88.464844 35.125 C 87.730469 35.042969 86.992188 35.003906 86.25 35.003906 C 85.507812 35.003906 84.769531 35.042969 84.035156 35.125 C 83.296875 35.203125 82.566406 35.324219 81.84375 35.484375 C 81.121094 35.640625 80.40625 35.839844 79.707031 36.078125 C 79.003906 36.3125 78.316406 36.585938 77.644531 36.898438 C 76.972656 37.207031 76.316406 37.554688 75.683594 37.9375 C 75.046875 38.320312 74.4375 38.734375 73.847656 39.183594 C 73.257812 39.628906 72.691406 40.109375 72.152344 40.617188 C 71.617188 41.128906 71.105469 41.664062 70.628906 42.230469 C 70.148438 42.792969 69.699219 43.382812 69.285156 43.996094 C 68.867188 44.609375 68.488281 45.242188 68.140625 45.898438 C 67.792969 46.550781 67.480469 47.222656 67.207031 47.910156 C 66.933594 48.597656 66.695312 49.300781 66.496094 50.011719 C 66.300781 50.726562 66.140625 51.449219 66.019531 52.179688 C 65.898438 52.910156 65.820312 53.648438 65.777344 54.386719 C 65.738281 55.125 65.738281 55.867188 65.777344 56.605469 C 65.816406 57.34375 65.898438 58.082031 66.015625 58.8125 C 66.136719 59.542969 66.292969 60.265625 66.492188 60.980469 C 66.691406 61.691406 66.925781 62.394531 67.199219 63.082031 C 67.472656 63.769531 67.785156 64.441406 68.128906 65.097656 C 68.476562 65.753906 68.859375 66.386719 69.273438 67 C 69.6875 67.613281 70.136719 68.203125 70.613281 68.765625 C 71.09375 69.332031 71.601562 69.871094 72.140625 70.378906 C 72.675781 70.890625 73.242188 71.367188 73.832031 71.816406 C 74.421875 72.265625 75.03125 72.683594 75.667969 73.0625 C 70.359375 74.691406 65.667969 77.394531 61.597656 81.167969 C 60.324219 79.355469 58.820312 77.765625 57.078125 76.394531 C 55.339844 75.027344 53.441406 73.9375 51.382812 73.125 C 51.753906 72.832031 52.105469 72.523438 52.445312 72.199219 C 52.785156 71.871094 53.105469 71.527344 53.410156 71.167969 C 53.714844 70.808594 54 70.433594 54.261719 70.046875 C 54.527344 69.65625 54.773438 69.253906 54.996094 68.839844 C 55.21875 68.425781 55.421875 68 55.601562 67.566406 C 55.78125 67.128906 55.9375 66.6875 56.070312 66.234375 C 56.203125 65.78125 56.3125 65.324219 56.398438 64.863281 C 56.484375 64.398438 56.546875 63.933594 56.585938 63.464844 C 56.625 62.996094 56.640625 62.527344 56.628906 62.054688 C 56.617188 61.585938 56.582031 61.117188 56.523438 60.648438 C 56.464844 60.179688 56.382812 59.71875 56.277344 59.257812 C 56.171875 58.800781 56.039062 58.347656 55.886719 57.902344 C 55.734375 57.457031 55.558594 57.023438 55.359375 56.59375 C 55.160156 56.167969 54.941406 55.753906 54.699219 55.347656 C 54.457031 54.945312 54.195312 54.554688 53.914062 54.175781 C 53.632812 53.800781 53.332031 53.4375 53.011719 53.089844 C 52.695312 52.746094 52.359375 52.417969 52.003906 52.105469 C 51.652344 51.792969 51.285156 51.5 50.902344 51.226562 C 50.515625 50.953125 50.121094 50.703125 49.710938 50.46875 C 49.300781 50.238281 48.882812 50.027344 48.449219 49.835938 C 48.019531 49.648438 47.578125 49.480469 47.128906 49.335938 C 46.683594 49.195312 46.226562 49.074219 45.765625 48.976562 C 45.304688 48.882812 44.839844 48.808594 44.371094 48.761719 C 43.90625 48.710938 43.433594 48.6875 42.964844 48.6875 C 42.492188 48.6875 42.023438 48.710938 41.554688 48.761719 C 41.085938 48.808594 40.621094 48.882812 40.160156 48.976562 C 39.699219 49.074219 39.246094 49.195312 38.796875 49.335938 C 38.347656 49.480469 37.910156 49.648438 37.476562 49.835938 C 37.046875 50.027344 36.625 50.238281 36.21875 50.46875 C 35.808594 50.703125 35.410156 50.953125 35.027344 51.226562 C 34.644531 51.5 34.277344 51.792969 33.921875 52.105469 C 33.570312 52.417969 33.234375 52.746094 32.914062 53.089844 C 32.597656 53.4375 32.296875 53.800781 32.011719 54.175781 C 31.730469 54.554688 31.46875 54.945312 31.230469 55.347656 C 30.988281 55.753906 30.769531 56.167969 30.570312 56.59375 C 30.371094 57.023438 30.195312 57.457031 30.042969 57.902344 C 29.886719 58.347656 29.757812 58.800781 29.652344 59.257812 C 29.546875 59.71875 29.460938 60.179688 29.402344 60.648438 C 29.34375 61.117188 29.308594 61.585938 29.300781 62.054688 C 29.289062 62.527344 29.304688 62.996094 29.339844 63.464844 C 29.378906 63.933594 29.441406 64.398438 29.527344 64.863281 C 29.613281 65.324219 29.726562 65.78125 29.859375 66.234375 C 29.992188 66.6875 30.148438 67.128906 30.328125 67.566406 C 30.507812 68 30.710938 68.425781 30.933594 68.839844 C 31.15625 69.253906 31.398438 69.65625 31.664062 70.046875 C 31.929688 70.433594 32.214844 70.808594 32.519531 71.167969 C 32.820312 71.527344 33.144531 71.871094 33.480469 72.199219 C 33.820312 72.523438 34.175781 72.832031 34.546875 73.125 C 33.609375 73.496094 32.699219 73.929688 31.820312 74.425781 C 30.9375 74.921875 30.09375 75.472656 29.285156 76.078125 C 28.476562 76.683594 27.714844 77.34375 26.996094 78.050781 C 26.273438 78.757812 25.605469 79.511719 24.984375 80.308594 C 24.363281 81.105469 23.800781 81.941406 23.289062 82.8125 C 22.78125 83.6875 22.332031 84.589844 21.941406 85.519531 C 21.554688 86.453125 21.226562 87.40625 20.964844 88.382812 C 20.703125 89.355469 20.503906 90.34375 20.375 91.347656 C 20.332031 91.671875 20.328125 92 20.355469 92.324219 C 20.386719 92.652344 20.449219 92.972656 20.546875 93.285156 C 20.644531 93.601562 20.773438 93.898438 20.933594 94.1875 C 21.09375 94.472656 21.285156 94.738281 21.5 94.984375 C 21.71875 95.230469 21.960938 95.449219 22.222656 95.644531 C 22.488281 95.839844 22.769531 96.003906 23.070312 96.140625 C 23.367188 96.273438 23.679688 96.375 24 96.445312 C 24.320312 96.515625 24.644531 96.550781 24.972656 96.550781 L 51.648438 96.550781 C 50.421875 100.246094 49.804688 104.042969 49.800781 107.9375 L 49.800781 110.21875 C 49.800781 110.515625 49.832031 110.8125 49.890625 111.105469 C 49.949219 111.398438 50.035156 111.683594 50.148438 111.960938 C 50.265625 112.238281 50.402344 112.5 50.570312 112.75 C 50.738281 112.996094 50.925781 113.226562 51.136719 113.4375 C 51.347656 113.648438 51.578125 113.839844 51.828125 114.003906 C 52.074219 114.171875 52.339844 114.3125 52.613281 114.425781 C 52.890625 114.539062 53.175781 114.628906 53.46875 114.6875 C 53.761719 114.742188 54.058594 114.773438 54.359375 114.773438 L 72.882812 114.773438 L 70.605469 128.058594 C 70.53125 128.484375 70.578125 128.898438 70.742188 129.300781 C 70.90625 129.699219 71.160156 130.027344 71.511719 130.28125 C 71.863281 130.535156 72.253906 130.679688 72.683594 130.710938 C 73.117188 130.742188 73.523438 130.65625 73.90625 130.457031 L 86.25 123.976562 L 98.585938 130.457031 C 98.96875 130.65625 99.375 130.742188 99.808594 130.710938 C 100.238281 130.679688 100.628906 130.535156 100.980469 130.28125 C 101.332031 130.027344 101.585938 129.699219 101.75 129.300781 C 101.914062 128.898438 101.960938 128.484375 101.886719 128.058594 L 99.609375 114.773438 L 118.140625 114.773438 C 118.441406 114.773438 118.734375 114.742188 119.03125 114.6875 C 119.324219 114.628906 119.609375 114.539062 119.882812 114.425781 C 120.160156 114.3125 120.421875 114.171875 120.671875 114.003906 C 120.921875 113.839844 121.152344 113.648438 121.363281 113.4375 C 121.574219 113.226562 121.761719 112.996094 121.929688 112.75 C 122.09375 112.5 122.234375 112.238281 122.351562 111.960938 C 122.464844 111.683594 122.550781 111.398438 122.609375 111.105469 C 122.667969 110.8125 122.695312 110.515625 122.695312 110.21875 L 122.695312 107.9375 C 122.691406 104.042969 122.078125 100.246094 120.847656 96.550781 L 147.527344 96.550781 C 147.855469 96.550781 148.179688 96.515625 148.5 96.445312 C 148.820312 96.378906 149.132812 96.277344 149.433594 96.140625 C 149.730469 96.007812 150.015625 95.84375 150.277344 95.648438 C 150.542969 95.453125 150.785156 95.234375 151.003906 94.988281 C 151.21875 94.742188 151.410156 94.476562 151.570312 94.1875 C 151.730469 93.902344 151.859375 93.601562 151.957031 93.289062 C 152.054688 92.972656 152.121094 92.652344 152.148438 92.328125 C 152.179688 92 152.171875 91.671875 152.132812 91.347656 Z M 120.417969 62.378906 C 120.417969 61.78125 120.476562 61.191406 120.59375 60.601562 C 120.710938 60.015625 120.882812 59.445312 121.113281 58.894531 C 121.339844 58.339844 121.621094 57.816406 121.953125 57.320312 C 122.285156 56.820312 122.664062 56.359375 123.085938 55.9375 C 123.511719 55.515625 123.972656 55.136719 124.46875 54.804688 C 124.964844 54.472656 125.492188 54.191406 126.042969 53.960938 C 126.597656 53.734375 127.167969 53.5625 127.753906 53.445312 C 128.339844 53.328125 128.933594 53.269531 129.53125 53.269531 C 130.128906 53.269531 130.722656 53.328125 131.308594 53.445312 C 131.894531 53.5625 132.464844 53.734375 133.015625 53.960938 C 133.570312 54.191406 134.09375 54.472656 134.59375 54.804688 C 135.089844 55.136719 135.550781 55.515625 135.972656 55.9375 C 136.398438 56.359375 136.773438 56.820312 137.105469 57.320312 C 137.4375 57.816406 137.71875 58.339844 137.949219 58.894531 C 138.175781 59.445312 138.351562 60.015625 138.46875 60.601562 C 138.582031 61.191406 138.640625 61.78125 138.640625 62.378906 C 138.640625 62.980469 138.582031 63.570312 138.46875 64.160156 C 138.351562 64.746094 138.175781 65.316406 137.949219 65.867188 C 137.71875 66.421875 137.4375 66.945312 137.105469 67.441406 C 136.773438 67.941406 136.398438 68.402344 135.972656 68.824219 C 135.550781 69.246094 135.089844 69.625 134.59375 69.957031 C 134.09375 70.289062 133.570312 70.570312 133.015625 70.796875 C 132.464844 71.027344 131.894531 71.199219 131.308594 71.316406 C 130.722656 71.433594 130.128906 71.492188 129.53125 71.492188 C 128.933594 71.492188 128.339844 71.433594 127.753906 71.316406 C 127.167969 71.199219 126.597656 71.027344 126.042969 70.796875 C 125.492188 70.570312 124.964844 70.289062 124.46875 69.957031 C 123.972656 69.625 123.511719 69.246094 123.085938 68.824219 C 122.664062 68.402344 122.285156 67.941406 121.953125 67.441406 C 121.621094 66.945312 121.339844 66.421875 121.113281 65.867188 C 120.882812 65.316406 120.710938 64.746094 120.59375 64.160156 C 120.476562 63.570312 120.417969 62.980469 120.417969 62.378906 Z M 70.304688 55.546875 C 70.304688 55.023438 70.328125 54.503906 70.378906 53.984375 C 70.433594 53.464844 70.507812 52.949219 70.609375 52.4375 C 70.710938 51.921875 70.839844 51.417969 70.992188 50.917969 C 71.140625 50.417969 71.316406 49.925781 71.519531 49.445312 C 71.71875 48.960938 71.941406 48.492188 72.1875 48.03125 C 72.433594 47.570312 72.703125 47.121094 72.992188 46.6875 C 73.28125 46.253906 73.59375 45.835938 73.921875 45.429688 C 74.253906 45.027344 74.605469 44.640625 74.972656 44.273438 C 75.34375 43.902344 75.730469 43.550781 76.132812 43.21875 C 76.539062 42.890625 76.957031 42.578125 77.390625 42.289062 C 77.824219 42 78.273438 41.730469 78.734375 41.484375 C 79.195312 41.238281 79.664062 41.015625 80.148438 40.816406 C 80.628906 40.613281 81.121094 40.4375 81.621094 40.289062 C 82.121094 40.136719 82.625 40.007812 83.140625 39.90625 C 83.652344 39.804688 84.167969 39.730469 84.6875 39.679688 C 85.207031 39.625 85.726562 39.601562 86.25 39.601562 C 86.773438 39.601562 87.292969 39.625 87.8125 39.679688 C 88.332031 39.730469 88.847656 39.804688 89.359375 39.90625 C 89.871094 40.007812 90.378906 40.136719 90.878906 40.289062 C 91.378906 40.4375 91.871094 40.613281 92.351562 40.816406 C 92.835938 41.015625 93.304688 41.238281 93.765625 41.484375 C 94.226562 41.730469 94.675781 42 95.109375 42.289062 C 95.542969 42.578125 95.960938 42.890625 96.367188 43.21875 C 96.769531 43.550781 97.15625 43.902344 97.523438 44.273438 C 97.894531 44.640625 98.246094 45.027344 98.574219 45.429688 C 98.90625 45.835938 99.21875 46.253906 99.507812 46.6875 C 99.796875 47.121094 100.066406 47.570312 100.3125 48.03125 C 100.558594 48.492188 100.78125 48.960938 100.980469 49.445312 C 101.179688 49.925781 101.355469 50.417969 101.507812 50.917969 C 101.660156 51.417969 101.785156 51.921875 101.890625 52.4375 C 101.992188 52.949219 102.066406 53.464844 102.117188 53.984375 C 102.167969 54.503906 102.195312 55.023438 102.195312 55.546875 C 102.195312 56.070312 102.167969 56.589844 102.117188 57.109375 C 102.066406 57.628906 101.992188 58.144531 101.890625 58.65625 C 101.785156 59.167969 101.660156 59.675781 101.507812 60.175781 C 101.355469 60.675781 101.179688 61.167969 100.980469 61.648438 C 100.78125 62.132812 100.558594 62.601562 100.3125 63.0625 C 100.066406 63.523438 99.796875 63.972656 99.507812 64.40625 C 99.21875 64.839844 98.90625 65.257812 98.574219 65.664062 C 98.246094 66.066406 97.894531 66.453125 97.523438 66.820312 C 97.15625 67.191406 96.769531 67.542969 96.367188 67.871094 C 95.960938 68.203125 95.542969 68.515625 95.109375 68.804688 C 94.675781 69.09375 94.226562 69.363281 93.765625 69.609375 C 93.304688 69.855469 92.835938 70.078125 92.351562 70.277344 C 91.871094 70.476562 91.378906 70.652344 90.878906 70.804688 C 90.378906 70.957031 89.871094 71.085938 89.359375 71.1875 C 88.847656 71.289062 88.332031 71.363281 87.8125 71.414062 C 87.292969 71.464844 86.773438 71.492188 86.25 71.492188 C 85.726562 71.492188 85.207031 71.464844 84.6875 71.414062 C 84.167969 71.363281 83.652344 71.285156 83.140625 71.183594 C 82.628906 71.082031 82.121094 70.953125 81.621094 70.800781 C 81.125 70.648438 80.632812 70.472656 80.148438 70.273438 C 79.667969 70.074219 79.195312 69.851562 78.738281 69.605469 C 78.277344 69.359375 77.828125 69.089844 77.394531 68.800781 C 76.960938 68.507812 76.542969 68.199219 76.140625 67.867188 C 75.734375 67.535156 75.347656 67.1875 74.980469 66.816406 C 74.609375 66.449219 74.261719 66.0625 73.929688 65.65625 C 73.597656 65.253906 73.289062 64.835938 72.996094 64.402344 C 72.707031 63.96875 72.4375 63.519531 72.191406 63.058594 C 71.945312 62.597656 71.722656 62.128906 71.523438 61.644531 C 71.324219 61.164062 71.148438 60.671875 70.996094 60.171875 C 70.84375 59.675781 70.714844 59.167969 70.613281 58.65625 C 70.511719 58.144531 70.433594 57.628906 70.382812 57.109375 C 70.332031 56.589844 70.304688 56.070312 70.304688 55.546875 Z M 33.855469 62.378906 C 33.855469 61.78125 33.914062 61.191406 34.03125 60.601562 C 34.148438 60.015625 34.320312 59.445312 34.550781 58.894531 C 34.78125 58.339844 35.058594 57.816406 35.394531 57.320312 C 35.726562 56.820312 36.101562 56.359375 36.527344 55.9375 C 36.949219 55.515625 37.410156 55.136719 37.90625 54.804688 C 38.402344 54.472656 38.929688 54.191406 39.480469 53.960938 C 40.035156 53.734375 40.605469 53.5625 41.191406 53.445312 C 41.777344 53.328125 42.371094 53.269531 42.96875 53.269531 C 43.566406 53.269531 44.160156 53.328125 44.746094 53.445312 C 45.332031 53.5625 45.902344 53.734375 46.457031 53.960938 C 47.007812 54.191406 47.535156 54.472656 48.03125 54.804688 C 48.527344 55.136719 48.988281 55.515625 49.410156 55.9375 C 49.835938 56.359375 50.210938 56.820312 50.546875 57.320312 C 50.878906 57.816406 51.15625 58.339844 51.386719 58.894531 C 51.617188 59.445312 51.789062 60.015625 51.90625 60.601562 C 52.023438 61.191406 52.082031 61.78125 52.082031 62.378906 C 52.082031 62.980469 52.023438 63.570312 51.90625 64.160156 C 51.789062 64.746094 51.617188 65.316406 51.386719 65.867188 C 51.15625 66.421875 50.878906 66.945312 50.546875 67.441406 C 50.210938 67.941406 49.835938 68.402344 49.410156 68.824219 C 48.988281 69.246094 48.527344 69.625 48.03125 69.957031 C 47.535156 70.289062 47.007812 70.570312 46.457031 70.796875 C 45.902344 71.027344 45.332031 71.199219 44.746094 71.316406 C 44.160156 71.433594 43.566406 71.492188 42.96875 71.492188 C 42.371094 71.492188 41.777344 71.433594 41.191406 71.316406 C 40.605469 71.199219 40.035156 71.027344 39.480469 70.796875 C 38.929688 70.570312 38.402344 70.289062 37.90625 69.957031 C 37.410156 69.625 36.949219 69.246094 36.527344 68.824219 C 36.101562 68.402344 35.726562 67.941406 35.394531 67.441406 C 35.058594 66.945312 34.78125 66.421875 34.550781 65.867188 C 34.320312 65.316406 34.148438 64.746094 34.03125 64.160156 C 33.914062 63.570312 33.855469 62.980469 33.855469 62.378906 Z M 53.46875 91.992188 L 24.894531 91.929688 C 25.011719 91.003906 25.203125 90.09375 25.460938 89.199219 C 25.71875 88.304688 26.046875 87.4375 26.4375 86.59375 C 26.828125 85.746094 27.285156 84.9375 27.800781 84.164062 C 28.316406 83.386719 28.890625 82.65625 29.515625 81.96875 C 30.144531 81.28125 30.824219 80.648438 31.546875 80.0625 C 32.273438 79.480469 33.039062 78.953125 33.847656 78.488281 C 34.652344 78.023438 35.488281 77.621094 36.359375 77.285156 C 37.226562 76.945312 38.113281 76.675781 39.023438 76.472656 C 39.933594 76.273438 40.851562 76.140625 41.78125 76.082031 C 42.710938 76.019531 43.636719 76.03125 44.566406 76.113281 C 45.492188 76.195312 46.410156 76.347656 47.3125 76.570312 C 48.21875 76.792969 49.101562 77.082031 49.960938 77.4375 C 50.820312 77.796875 51.648438 78.214844 52.441406 78.699219 C 53.238281 79.183594 53.992188 79.726562 54.703125 80.328125 C 55.417969 80.925781 56.078125 81.578125 56.691406 82.277344 C 57.304688 82.980469 57.859375 83.722656 58.359375 84.511719 C 56.460938 86.832031 54.832031 89.324219 53.46875 91.992188 Z M 87.308594 119.386719 C 86.976562 119.210938 86.625 119.125 86.25 119.125 C 85.875 119.125 85.523438 119.210938 85.191406 119.386719 L 75.878906 124.277344 L 77.652344 113.90625 C 77.714844 113.535156 77.691406 113.171875 77.574219 112.816406 C 77.457031 112.460938 77.265625 112.152344 76.996094 111.890625 L 76.566406 111.46875 L 75.96875 110.886719 L 75.949219 110.863281 L 69.480469 104.5625 L 79.878906 103.039062 C 80.25 102.984375 80.585938 102.847656 80.890625 102.628906 C 81.191406 102.410156 81.425781 102.132812 81.59375 101.796875 L 86.25 92.375 L 90.90625 101.789062 C 91.070312 102.125 91.304688 102.402344 91.609375 102.621094 C 91.910156 102.84375 92.25 102.980469 92.617188 103.03125 L 103.015625 104.554688 L 96.546875 110.859375 L 96.535156 110.878906 C 96.007812 111.394531 95.625 111.757812 95.511719 111.871094 L 95.511719 111.882812 L 95.492188 111.902344 C 95.207031 112.1875 95.007812 112.527344 94.898438 112.917969 C 94.789062 113.308594 94.777344 113.703125 94.871094 114.097656 C 94.890625 114.175781 94.914062 114.246094 94.941406 114.328125 L 96.640625 124.269531 Z M 118.140625 110.21875 L 103.761719 110.21875 C 105.234375 108.785156 107.046875 107.011719 109.3125 104.792969 L 109.503906 104.605469 C 109.511719 104.589844 109.523438 104.578125 109.535156 104.5625 C 109.671875 104.425781 109.789062 104.273438 109.890625 104.109375 C 109.925781 104.035156 109.953125 103.957031 109.980469 103.878906 C 110.035156 103.765625 110.082031 103.648438 110.121094 103.53125 C 110.167969 103.332031 110.1875 103.132812 110.183594 102.929688 L 110.183594 102.910156 C 110.175781 102.695312 110.136719 102.484375 110.074219 102.277344 C 110.007812 102.085938 109.921875 101.90625 109.808594 101.738281 L 109.792969 101.710938 C 109.652344 101.554688 109.515625 101.402344 109.371094 101.253906 C 109.316406 101.207031 109.25 101.179688 109.191406 101.140625 C 108.214844 100.457031 109.050781 101.058594 94.453125 98.726562 L 88.300781 86.222656 C 88.195312 86.046875 88.070312 85.886719 87.921875 85.742188 C 87.777344 85.597656 87.613281 85.472656 87.433594 85.371094 C 87.253906 85.269531 87.066406 85.191406 86.867188 85.140625 C 86.667969 85.085938 86.464844 85.058594 86.257812 85.058594 C 86.054688 85.058594 85.851562 85.085938 85.652344 85.140625 C 85.453125 85.191406 85.261719 85.269531 85.082031 85.371094 C 84.90625 85.472656 84.742188 85.597656 84.59375 85.742188 C 84.449219 85.886719 84.324219 86.046875 84.21875 86.222656 L 78.050781 98.703125 C 69.847656 100.4375 60.933594 99.472656 62.382812 103.488281 C 62.480469 103.921875 62.6875 104.296875 63.003906 104.613281 L 64.019531 105.597656 L 64.054688 105.632812 L 68.753906 110.21875 L 54.359375 110.21875 L 54.359375 107.9375 C 54.359375 106.894531 54.410156 105.851562 54.511719 104.8125 C 54.613281 103.773438 54.765625 102.742188 54.972656 101.71875 C 55.175781 100.691406 55.429688 99.679688 55.730469 98.683594 C 56.035156 97.683594 56.386719 96.699219 56.785156 95.734375 C 57.1875 94.769531 57.632812 93.828125 58.125 92.90625 C 58.617188 91.984375 59.152344 91.089844 59.734375 90.222656 C 60.3125 89.351562 60.933594 88.515625 61.597656 87.707031 C 62.261719 86.902344 62.960938 86.128906 63.699219 85.390625 C 64.4375 84.648438 65.210938 83.949219 66.019531 83.289062 C 66.824219 82.625 67.664062 82.003906 68.53125 81.421875 C 69.398438 80.84375 70.296875 80.304688 71.214844 79.8125 C 72.136719 79.320312 73.082031 78.875 74.046875 78.476562 C 75.011719 78.074219 75.992188 77.726562 76.992188 77.421875 C 77.992188 77.117188 79.003906 76.863281 80.027344 76.660156 C 81.050781 76.457031 82.085938 76.304688 83.125 76.203125 C 84.164062 76.097656 85.207031 76.046875 86.25 76.046875 C 87.292969 76.046875 88.335938 76.097656 89.375 76.203125 C 90.414062 76.304688 91.445312 76.457031 92.472656 76.660156 C 93.496094 76.863281 94.507812 77.117188 95.507812 77.421875 C 96.507812 77.726562 97.488281 78.074219 98.453125 78.476562 C 99.417969 78.875 100.363281 79.320312 101.28125 79.8125 C 102.203125 80.304688 103.097656 80.84375 103.96875 81.421875 C 104.835938 82.003906 105.671875 82.625 106.480469 83.289062 C 107.289062 83.949219 108.0625 84.648438 108.800781 85.390625 C 109.539062 86.128906 110.238281 86.902344 110.902344 87.707031 C 111.5625 88.515625 112.1875 89.351562 112.765625 90.222656 C 113.347656 91.089844 113.882812 91.984375 114.375 92.90625 C 114.867188 93.828125 115.3125 94.769531 115.714844 95.734375 C 116.113281 96.699219 116.464844 97.683594 116.765625 98.683594 C 117.070312 99.679688 117.324219 100.691406 117.527344 101.71875 C 117.730469 102.742188 117.886719 103.773438 117.988281 104.8125 C 118.089844 105.851562 118.140625 106.894531 118.140625 107.9375 Z M 147.527344 91.992188 L 119.027344 91.992188 C 117.667969 89.324219 116.039062 86.828125 114.140625 84.511719 C 114.640625 83.726562 115.195312 82.984375 115.808594 82.28125 C 116.421875 81.582031 117.085938 80.933594 117.800781 80.335938 C 118.511719 79.738281 119.265625 79.195312 120.0625 78.714844 C 120.859375 78.230469 121.683594 77.8125 122.546875 77.457031 C 123.40625 77.097656 124.289062 76.8125 125.191406 76.589844 C 126.09375 76.367188 127.011719 76.21875 127.9375 76.136719 C 128.867188 76.058594 129.792969 76.046875 130.722656 76.109375 C 131.652344 76.171875 132.570312 76.300781 133.476562 76.503906 C 134.386719 76.707031 135.273438 76.976562 136.140625 77.316406 C 137.007812 77.652344 137.84375 78.054688 138.648438 78.523438 C 139.453125 78.988281 140.21875 79.515625 140.945312 80.097656 C 141.667969 80.683594 142.347656 81.316406 142.972656 82.003906 C 143.601562 82.691406 144.171875 83.421875 144.6875 84.199219 C 145.203125 84.972656 145.65625 85.78125 146.050781 86.625 C 146.441406 87.46875 146.765625 88.339844 147.023438 89.234375 C 147.28125 90.128906 147.472656 91.035156 147.589844 91.960938 C 147.574219 91.980469 147.550781 91.992188 147.527344 91.992188 Z M 147.527344 91.992188 " fill-opacity="1" fill-rule="nonzero"/></g></svg>