<svg xmlns="http://www.w3.org/2000/svg" xmlns:xlink="http://www.w3.org/1999/xlink" width="231" zoomAndPan="magnify" viewBox="0 0 173.25 166.499994" height="222" preserveAspectRatio="xMidYMid meet" version="1.0"><defs><clipPath id="89bd6d3514"><path d="M 0 0.109375 L 172.503906 0.109375 L 172.503906 165.890625 L 0 165.890625 Z M 0 0.109375 " clip-rule="nonzero"/></clipPath><clipPath id="42def00cc8"><path d="M 21.648438 52 L 131 52 L 131 128.5625 L 21.648438 128.5625 Z M 21.648438 52 " clip-rule="nonzero"/></clipPath><clipPath id="500d79c772"><path d="M 105 37.457031 L 150.839844 37.457031 L 150.839844 83 L 105 83 Z M 105 37.457031 " clip-rule="nonzero"/></clipPath></defs><g clip-path="url(#89bd6d3514)"><path fill="#ffffff" d="M 0 0.109375 L 172.503906 0.109375 L 172.503906 165.890625 L 0 165.890625 Z M 0 0.109375 " fill-opacity="1" fill-rule="nonzero"/><path fill="#ffffff" d="M 0 0.109375 L 172.503906 0.109375 L 172.503906 165.890625 L 0 165.890625 Z M 0 0.109375 " fill-opacity="1" fill-rule="nonzero"/></g><g clip-path="url(#42def00cc8)"><path fill="#1c9ed9" d="M 120.75 128.503906 L 31.34375 128.503906 C 26 128.503906 21.65625 124.15625 21.65625 118.808594 L 21.65625 62.535156 C 21.65625 57.1875 26 52.839844 31.34375 52.839844 L 108.621094 52.839844 C 109.738281 52.839844 110.644531 53.746094 110.644531 54.863281 C 110.644531 55.976562 109.738281 56.882812 108.621094 56.882812 L 31.34375 56.882812 C 28.230469 56.882812 25.699219 59.417969 25.699219 62.535156 L 25.699219 118.808594 C 25.699219 121.925781 28.230469 124.460938 31.34375 124.460938 L 120.75 124.460938 C 123.863281 124.460938 126.390625 121.925781 126.390625 118.808594 L 126.390625 80.441406 C 126.390625 79.324219 127.296875 78.417969 128.414062 78.417969 C 129.53125 78.417969 130.433594 79.324219 130.433594 80.441406 L 130.433594 118.808594 C 130.433594 124.15625 126.089844 128.503906 120.75 128.503906 Z M 120.75 128.503906 " fill-opacity="1" fill-rule="nonzero"/></g><path fill="#1c9ed9" d="M 49.222656 87.578125 C 45.292969 87.578125 42.09375 84.375 42.09375 80.441406 C 42.09375 76.503906 45.292969 73.304688 49.222656 73.304688 C 53.15625 73.304688 56.355469 76.503906 56.355469 80.441406 C 56.355469 84.375 53.15625 87.578125 49.222656 87.578125 Z M 49.222656 77.347656 C 47.519531 77.347656 46.136719 78.734375 46.136719 80.441406 C 46.136719 82.148438 47.519531 83.535156 49.222656 83.535156 C 50.925781 83.535156 52.3125 82.148438 52.3125 80.441406 C 52.3125 78.734375 50.925781 77.347656 49.222656 77.347656 Z M 49.222656 77.347656 " fill-opacity="1" fill-rule="nonzero"/><path fill="#1c9ed9" d="M 49.222656 97.808594 C 39.65625 97.808594 31.875 90.019531 31.875 80.441406 C 31.875 70.863281 39.65625 63.070312 49.222656 63.070312 C 58.789062 63.070312 66.570312 70.863281 66.570312 80.441406 C 66.570312 90.019531 58.789062 97.808594 49.222656 97.808594 Z M 49.222656 67.113281 C 41.886719 67.113281 35.917969 73.09375 35.917969 80.441406 C 35.917969 87.789062 41.886719 93.765625 49.222656 93.765625 C 56.558594 93.765625 62.527344 87.789062 62.527344 80.441406 C 62.527344 73.09375 56.558594 67.113281 49.222656 67.113281 Z M 49.222656 67.113281 " fill-opacity="1" fill-rule="nonzero"/><path fill="#1c9ed9" d="M 56.886719 95.753906 C 55.769531 95.753906 54.867188 94.851562 54.867188 93.734375 L 54.867188 93.230469 C 54.867188 90.113281 52.335938 87.578125 49.222656 87.578125 C 46.113281 87.578125 43.582031 90.113281 43.582031 93.230469 L 43.582031 93.734375 C 43.582031 94.851562 42.675781 95.753906 41.558594 95.753906 C 40.441406 95.753906 39.539062 94.851562 39.539062 93.734375 L 39.539062 93.230469 C 39.539062 87.882812 43.882812 83.535156 49.222656 83.535156 C 54.5625 83.535156 58.910156 87.882812 58.910156 93.230469 L 58.910156 93.734375 C 58.910156 94.851562 58.003906 95.753906 56.886719 95.753906 Z M 56.886719 95.753906 " fill-opacity="1" fill-rule="nonzero"/><path fill="#1c9ed9" d="M 64.550781 118.273438 L 33.894531 118.273438 C 32.78125 118.273438 31.875 117.367188 31.875 116.25 L 31.875 106.019531 C 31.875 104.902344 32.78125 103.996094 33.894531 103.996094 L 64.550781 103.996094 C 65.667969 103.996094 66.570312 104.902344 66.570312 106.019531 L 66.570312 116.25 C 66.570312 117.367188 65.667969 118.273438 64.550781 118.273438 Z M 35.917969 114.230469 L 62.527344 114.230469 L 62.527344 108.039062 L 35.917969 108.039062 Z M 35.917969 114.230469 " fill-opacity="1" fill-rule="nonzero"/><path fill="#1c9ed9" d="M 118.195312 108.039062 L 74.769531 108.039062 C 73.652344 108.039062 72.746094 107.136719 72.746094 106.019531 C 72.746094 104.902344 73.652344 103.996094 74.769531 103.996094 L 118.195312 103.996094 C 119.3125 103.996094 120.21875 104.902344 120.21875 106.019531 C 120.21875 107.136719 119.3125 108.039062 118.195312 108.039062 Z M 118.195312 108.039062 " fill-opacity="1" fill-rule="nonzero"/><path fill="#1c9ed9" d="M 118.195312 118.273438 L 74.769531 118.273438 C 73.652344 118.273438 72.746094 117.367188 72.746094 116.25 C 72.746094 115.132812 73.652344 114.230469 74.769531 114.230469 L 118.195312 114.230469 C 119.3125 114.230469 120.21875 115.132812 120.21875 116.25 C 120.21875 117.367188 119.3125 118.273438 118.195312 118.273438 Z M 118.195312 118.273438 " fill-opacity="1" fill-rule="nonzero"/><path fill="#1c9ed9" d="M 108.621094 67.113281 L 74.769531 67.113281 C 73.652344 67.113281 72.746094 66.210938 72.746094 65.09375 C 72.746094 63.976562 73.652344 63.070312 74.769531 63.070312 L 108.621094 63.070312 C 109.738281 63.070312 110.644531 63.976562 110.644531 65.09375 C 110.644531 66.210938 109.738281 67.113281 108.621094 67.113281 Z M 108.621094 67.113281 " fill-opacity="1" fill-rule="nonzero"/><path fill="#1c9ed9" d="M 114.898438 77.347656 L 74.769531 77.347656 C 73.652344 77.347656 72.746094 76.441406 72.746094 75.324219 C 72.746094 74.207031 73.652344 73.304688 74.769531 73.304688 L 114.898438 73.304688 C 116.015625 73.304688 116.917969 74.207031 116.917969 75.324219 C 116.917969 76.441406 116.015625 77.347656 114.898438 77.347656 Z M 114.898438 77.347656 " fill-opacity="1" fill-rule="nonzero"/><path fill="#1c9ed9" d="M 100.3125 87.578125 L 74.769531 87.578125 C 73.652344 87.578125 72.746094 86.671875 72.746094 85.554688 C 72.746094 84.441406 73.652344 83.535156 74.769531 83.535156 L 100.3125 83.535156 C 101.429688 83.535156 102.335938 84.441406 102.335938 85.554688 C 102.335938 86.671875 101.429688 87.578125 100.3125 87.578125 Z M 100.3125 87.578125 " fill-opacity="1" fill-rule="nonzero"/><path fill="#1c9ed9" d="M 110.53125 97.808594 L 74.769531 97.808594 C 73.652344 97.808594 72.746094 96.902344 72.746094 95.789062 C 72.746094 94.671875 73.652344 93.765625 74.769531 93.765625 L 110.53125 93.765625 C 111.648438 93.765625 112.554688 94.671875 112.554688 95.789062 C 112.554688 96.902344 111.648438 97.808594 110.53125 97.808594 Z M 110.53125 97.808594 " fill-opacity="1" fill-rule="nonzero"/><g clip-path="url(#500d79c772)"><path fill="#1c9ed9" d="M 128.414062 82.460938 C 116.03125 82.460938 105.957031 72.375 105.957031 59.976562 C 105.957031 47.578125 116.03125 37.492188 128.414062 37.492188 C 140.796875 37.492188 150.871094 47.578125 150.871094 59.976562 C 150.871094 72.375 140.796875 82.460938 128.414062 82.460938 Z M 128.414062 41.535156 C 118.261719 41.535156 110 49.808594 110 59.976562 C 110 70.144531 118.261719 78.417969 128.414062 78.417969 C 138.566406 78.417969 146.828125 70.144531 146.828125 59.976562 C 146.828125 49.808594 138.566406 41.535156 128.414062 41.535156 Z M 128.414062 41.535156 " fill-opacity="1" fill-rule="nonzero"/></g><path fill="#1c9ed9" d="M 124.800781 68.328125 C 124.265625 68.328125 123.75 68.117188 123.371094 67.734375 L 117.953125 62.308594 C 117.164062 61.519531 117.164062 60.238281 117.953125 59.453125 C 118.742188 58.660156 120.023438 58.664062 120.8125 59.453125 L 124.800781 63.445312 L 136.015625 52.21875 C 136.804688 51.429688 138.085938 51.429688 138.875 52.214844 C 139.664062 53.003906 139.664062 54.285156 138.875 55.074219 L 126.230469 67.738281 C 125.851562 68.117188 125.335938 68.328125 124.800781 68.328125 Z M 124.800781 68.328125 " fill-opacity="1" fill-rule="nonzero"/></svg>