<svg xmlns="http://www.w3.org/2000/svg" xmlns:xlink="http://www.w3.org/1999/xlink" width="231" zoomAndPan="magnify" viewBox="0 0 173.25 166.499994" height="222" preserveAspectRatio="xMidYMid meet" version="1.0"><defs><clipPath id="24ff6363e6"><path d="M 0 0.109375 L 172.503906 0.109375 L 172.503906 165.890625 L 0 165.890625 Z M 0 0.109375 " clip-rule="nonzero"/></clipPath><clipPath id="4d51320065"><path d="M 33.085938 27.183594 L 139.128906 27.183594 L 139.128906 138.453125 L 33.085938 138.453125 Z M 33.085938 27.183594 " clip-rule="nonzero"/></clipPath></defs><g clip-path="url(#24ff6363e6)"><path fill="#ffffff" d="M 0 0.109375 L 172.503906 0.109375 L 172.503906 165.890625 L 0 165.890625 Z M 0 0.109375 " fill-opacity="1" fill-rule="nonzero"/><path fill="#ffffff" d="M 0 0.109375 L 172.503906 0.109375 L 172.503906 165.890625 L 0 165.890625 Z M 0 0.109375 " fill-opacity="1" fill-rule="nonzero"/></g><g clip-path="url(#4d51320065)"><path fill="#1c9ed9" d="M 132.265625 27.328125 L 40.226562 27.328125 C 36.261719 27.328125 33.085938 30.5 33.085938 34.46875 L 33.085938 98.207031 C 33.085938 102.175781 36.261719 105.347656 40.226562 105.347656 L 74.609375 105.347656 L 70.378906 120.6875 L 67.734375 120.6875 C 64.03125 120.6875 61.121094 123.597656 61.121094 127.300781 L 61.121094 132.0625 C 61.121094 135.765625 64.03125 138.671875 67.734375 138.671875 L 104.761719 138.671875 C 108.464844 138.671875 111.375 135.765625 111.375 132.0625 L 111.375 127.300781 C 111.375 123.597656 108.464844 120.6875 104.761719 120.6875 L 102.117188 120.6875 L 97.882812 105.347656 L 132.265625 105.347656 C 136.234375 105.347656 139.40625 102.175781 139.40625 98.207031 L 139.40625 34.46875 C 139.40625 30.5 136.234375 27.328125 132.265625 27.328125 Z M 40.226562 32.617188 L 132.265625 32.617188 C 133.324219 32.617188 134.117188 33.410156 134.117188 34.46875 L 134.117188 89.480469 L 38.375 89.480469 L 38.375 34.46875 C 38.375 33.410156 39.171875 32.617188 40.226562 32.617188 Z M 106.082031 127.035156 L 106.082031 131.796875 C 106.082031 132.589844 105.554688 133.121094 104.761719 133.121094 L 67.734375 133.121094 C 66.941406 133.121094 66.410156 132.589844 66.410156 131.796875 L 66.410156 127.035156 C 66.410156 126.242188 66.941406 125.714844 67.734375 125.714844 L 104.761719 125.714844 C 105.554688 125.976562 106.082031 126.507812 106.082031 127.035156 Z M 96.5625 120.6875 L 75.933594 120.6875 L 80.164062 105.347656 L 92.59375 105.347656 Z M 132.265625 100.058594 L 40.226562 100.058594 C 39.171875 100.058594 38.375 99.265625 38.375 98.207031 L 38.375 94.769531 L 134.117188 94.769531 L 134.117188 98.207031 C 134.117188 99.265625 133.324219 100.058594 132.265625 100.058594 Z M 132.265625 100.058594 " fill-opacity="1" fill-rule="nonzero"/></g><path fill="#1c9ed9" d="M 97.882812 58.800781 L 124.066406 58.800781 C 126.449219 58.800781 128.300781 56.949219 128.300781 54.570312 L 128.300781 47.164062 C 128.300781 44.78125 126.449219 42.929688 124.066406 42.929688 L 97.882812 42.929688 C 95.503906 42.929688 93.652344 44.78125 93.652344 47.164062 L 93.652344 54.570312 C 93.652344 56.949219 95.503906 58.800781 97.882812 58.800781 Z M 98.941406 47.957031 L 123.273438 47.957031 L 123.273438 53.511719 L 98.941406 53.511719 Z M 98.941406 47.957031 " fill-opacity="1" fill-rule="nonzero"/><path fill="#1c9ed9" d="M 96.296875 68.851562 L 125.917969 68.851562 C 127.507812 68.851562 128.5625 67.792969 128.5625 66.207031 C 128.5625 64.617188 127.507812 63.5625 125.917969 63.5625 L 96.296875 63.5625 C 94.710938 63.5625 93.652344 64.617188 93.652344 66.207031 C 93.652344 67.792969 94.710938 68.851562 96.296875 68.851562 Z M 96.296875 68.851562 " fill-opacity="1" fill-rule="nonzero"/><path fill="#1c9ed9" d="M 96.296875 78.371094 L 125.917969 78.371094 C 127.507812 78.371094 128.5625 77.3125 128.5625 75.726562 C 128.5625 74.140625 127.507812 73.082031 125.917969 73.082031 L 96.296875 73.082031 C 94.710938 73.082031 93.652344 74.140625 93.652344 75.726562 C 93.652344 77.3125 94.710938 78.371094 96.296875 78.371094 Z M 96.296875 78.371094 " fill-opacity="1" fill-rule="nonzero"/><path fill="#1c9ed9" d="M 66.148438 83.132812 C 78.3125 83.132812 88.097656 73.347656 88.097656 61.179688 C 88.097656 49.015625 78.3125 38.964844 66.148438 38.964844 C 53.980469 38.964844 44.195312 48.75 44.195312 60.917969 C 44.195312 73.082031 53.980469 83.132812 66.148438 83.132812 Z M 56.625 74.667969 C 56.625 69.378906 60.859375 65.148438 66.148438 65.148438 C 71.4375 65.148438 75.667969 69.378906 75.667969 74.667969 C 73.023438 76.519531 69.585938 77.578125 66.148438 77.578125 C 62.707031 77.84375 59.269531 76.519531 56.625 74.667969 Z M 62.707031 56.421875 C 62.707031 54.304688 64.296875 52.71875 66.410156 52.71875 C 68.527344 52.71875 70.113281 54.304688 70.113281 56.421875 C 70.113281 58.535156 68.527344 60.121094 66.410156 60.121094 C 64.296875 59.859375 62.707031 58.269531 62.707031 56.421875 Z M 66.148438 44.253906 C 75.402344 44.253906 82.808594 51.660156 82.808594 60.917969 C 82.808594 64.355469 81.75 67.265625 80.164062 69.910156 C 78.84375 66.207031 76.460938 63.296875 73.023438 61.445312 C 74.082031 59.859375 74.875 58.007812 74.875 56.15625 C 74.875 51.128906 70.90625 47.164062 65.882812 47.164062 C 60.859375 47.164062 56.890625 51.128906 56.890625 56.15625 C 56.890625 58.269531 57.683594 60.121094 58.742188 61.445312 C 55.566406 63.296875 52.921875 66.207031 51.601562 69.910156 C 50.015625 67.265625 48.957031 64.089844 48.957031 60.917969 C 49.484375 51.660156 56.890625 44.253906 66.148438 44.253906 Z M 66.148438 44.253906 " fill-opacity="1" fill-rule="nonzero"/></svg>