<svg xmlns="http://www.w3.org/2000/svg" xmlns:xlink="http://www.w3.org/1999/xlink" width="231" zoomAndPan="magnify" viewBox="0 0 173.25 166.499994" height="222" preserveAspectRatio="xMidYMid meet" version="1.0"><defs><clipPath id="dd266b012a"><path d="M 0 0.109375 L 172.503906 0.109375 L 172.503906 165.890625 L 0 165.890625 Z M 0 0.109375 " clip-rule="nonzero"/></clipPath><clipPath id="58179999d1"><path d="M 92 92 L 141.03125 92 L 141.03125 140.707031 L 92 140.707031 Z M 92 92 " clip-rule="nonzero"/></clipPath><clipPath id="156ad9f740"><path d="M 31.257812 24.957031 L 123 24.957031 L 123 140.707031 L 31.257812 140.707031 Z M 31.257812 24.957031 " clip-rule="nonzero"/></clipPath></defs><g clip-path="url(#dd266b012a)"><path fill="#ffffff" d="M 0 0.109375 L 172.503906 0.109375 L 172.503906 165.890625 L 0 165.890625 Z M 0 0.109375 " fill-opacity="1" fill-rule="nonzero"/><path fill="#ffffff" d="M 0 0.109375 L 172.503906 0.109375 L 172.503906 165.890625 L 0 165.890625 Z M 0 0.109375 " fill-opacity="1" fill-rule="nonzero"/></g><path fill="#1c9ed9" d="M 125.0625 108.328125 C 123.871094 107.132812 121.9375 107.132812 120.742188 108.328125 L 116.792969 112.277344 L 112.84375 108.328125 C 111.652344 107.132812 109.71875 107.132812 108.527344 108.328125 C 107.332031 109.519531 107.332031 111.453125 108.527344 112.648438 L 112.476562 116.597656 L 108.527344 120.546875 C 107.332031 121.738281 107.332031 123.671875 108.523438 124.867188 C 109.648438 125.988281 111.648438 126.0625 112.84375 124.867188 L 116.792969 120.917969 C 116.792969 120.917969 120.742188 124.867188 120.742188 124.867188 C 121.925781 126.050781 123.882812 126.046875 125.0625 124.867188 C 126.257812 123.671875 126.257812 121.738281 125.0625 120.546875 L 121.113281 116.597656 L 125.0625 112.648438 C 126.257812 111.453125 126.257812 109.519531 125.0625 108.328125 Z M 125.0625 108.328125 " fill-opacity="1" fill-rule="nonzero"/><g clip-path="url(#58179999d1)"><path fill="#1c9ed9" d="M 116.792969 92.160156 C 103.320312 92.160156 92.359375 103.121094 92.359375 116.597656 C 92.359375 130.070312 103.320312 141.035156 116.792969 141.035156 C 130.269531 141.035156 141.230469 130.070312 141.230469 116.597656 C 141.230469 103.121094 130.269531 92.160156 116.792969 92.160156 Z M 116.792969 134.925781 C 106.6875 134.925781 98.464844 126.703125 98.464844 116.597656 C 98.464844 106.492188 106.6875 98.269531 116.792969 98.269531 C 126.902344 98.269531 135.121094 106.492188 135.121094 116.597656 C 135.121094 126.703125 126.902344 134.925781 116.792969 134.925781 Z M 116.792969 134.925781 " fill-opacity="1" fill-rule="nonzero"/></g><path fill="#1c9ed9" d="M 58.757812 43.285156 L 83.195312 43.285156 C 84.878906 43.285156 86.25 41.917969 86.25 40.230469 C 86.25 38.542969 84.878906 37.175781 83.195312 37.175781 L 58.757812 37.175781 C 57.070312 37.175781 55.703125 38.542969 55.703125 40.230469 C 55.703125 41.917969 57.070312 43.285156 58.757812 43.285156 Z M 58.757812 43.285156 " fill-opacity="1" fill-rule="nonzero"/><path fill="#1c9ed9" d="M 58.757812 55.503906 L 83.195312 55.503906 C 84.878906 55.503906 86.25 54.136719 86.25 52.449219 C 86.25 50.761719 84.878906 49.394531 83.195312 49.394531 L 58.757812 49.394531 C 57.070312 49.394531 55.703125 50.761719 55.703125 52.449219 C 55.703125 54.136719 57.070312 55.503906 58.757812 55.503906 Z M 58.757812 55.503906 " fill-opacity="1" fill-rule="nonzero"/><path fill="#1c9ed9" d="M 107.628906 61.613281 L 58.757812 61.613281 C 57.070312 61.613281 55.703125 62.980469 55.703125 64.667969 C 55.703125 66.355469 57.070312 67.722656 58.757812 67.722656 L 107.628906 67.722656 C 109.316406 67.722656 110.683594 66.355469 110.683594 64.667969 C 110.683594 62.980469 109.316406 61.613281 107.628906 61.613281 Z M 107.628906 61.613281 " fill-opacity="1" fill-rule="nonzero"/><path fill="#1c9ed9" d="M 110.683594 76.886719 C 110.683594 75.199219 109.316406 73.832031 107.628906 73.832031 L 58.757812 73.832031 C 57.070312 73.832031 55.703125 75.199219 55.703125 76.886719 C 55.703125 78.574219 57.070312 79.941406 58.757812 79.941406 L 107.628906 79.941406 C 109.316406 79.941406 110.683594 78.574219 110.683594 76.886719 Z M 110.683594 76.886719 " fill-opacity="1" fill-rule="nonzero"/><path fill="#1c9ed9" d="M 101.519531 89.105469 C 101.519531 87.417969 100.152344 86.050781 98.464844 86.050781 L 58.757812 86.050781 C 57.070312 86.050781 55.703125 87.417969 55.703125 89.105469 C 55.703125 90.792969 57.070312 92.160156 58.757812 92.160156 L 98.464844 92.160156 C 100.152344 92.160156 101.519531 90.792969 101.519531 89.105469 Z M 101.519531 89.105469 " fill-opacity="1" fill-rule="nonzero"/><path fill="#1c9ed9" d="M 58.757812 110.488281 C 57.070312 110.488281 55.703125 111.855469 55.703125 113.542969 C 55.703125 115.230469 57.070312 116.597656 58.757812 116.597656 L 74.03125 116.597656 C 75.714844 116.597656 77.085938 115.230469 77.085938 113.542969 C 77.085938 111.855469 75.714844 110.488281 74.03125 110.488281 Z M 58.757812 110.488281 " fill-opacity="1" fill-rule="nonzero"/><g clip-path="url(#156ad9f740)"><path fill="#1c9ed9" d="M 90.859375 134.925781 L 37.375 134.925781 L 37.375 43.285156 L 43.484375 43.285156 L 43.484375 125.761719 C 43.484375 127.449219 44.851562 128.816406 46.539062 128.816406 L 84.476562 128.816406 C 86.164062 128.816406 87.53125 127.449219 87.53125 125.761719 C 87.53125 124.074219 86.164062 122.707031 84.476562 122.707031 L 49.59375 122.707031 L 49.59375 31.066406 L 92.359375 31.066406 L 92.359375 52.449219 C 92.359375 54.136719 93.726562 55.503906 95.414062 55.503906 L 116.792969 55.503906 L 116.792969 83.148438 C 116.792969 84.835938 118.164062 86.203125 119.847656 86.203125 C 121.535156 86.203125 122.902344 84.835938 122.902344 83.148438 L 122.902344 52.449219 C 122.902344 51.640625 122.582031 50.863281 122.007812 50.289062 L 97.570312 25.851562 C 97 25.28125 96.222656 24.957031 95.414062 24.957031 L 46.539062 24.957031 C 44.851562 24.957031 43.484375 26.324219 43.484375 28.011719 L 43.484375 37.175781 L 34.320312 37.175781 C 32.632812 37.175781 31.265625 38.542969 31.265625 40.230469 L 31.265625 137.980469 C 31.265625 139.667969 32.632812 141.035156 34.320312 141.035156 L 90.859375 141.035156 C 92.546875 141.035156 93.914062 139.667969 93.914062 137.980469 C 93.914062 136.292969 92.546875 134.925781 90.859375 134.925781 Z M 98.464844 35.386719 L 112.476562 49.394531 L 98.464844 49.394531 Z M 98.464844 35.386719 " fill-opacity="1" fill-rule="nonzero"/></g></svg>